<svg width="64" height="27" viewBox="0 0 64 27" fill="none" xmlns="http://www.w3.org/2000/svg">
<path d="M1.42 20V5.9H4.52V17.38H11.04V20H1.42ZM18.6436 20.22C17.2569 20.22 16.0369 19.92 14.9836 19.32C13.9436 18.7067 13.1303 17.86 12.5436 16.78C11.9703 15.6867 11.6836 14.4067 11.6836 12.94C11.6836 11.4733 11.9703 10.2 12.5436 9.12C13.1303 8.02667 13.9436 7.18 14.9836 6.58C16.0236 5.98 17.2436 5.68 18.6436 5.68C20.0436 5.68 21.2636 5.98 22.3036 6.58C23.3569 7.18 24.1703 8.02667 24.7436 9.12C25.3303 10.2 25.6236 11.4667 25.6236 12.92C25.6236 14.3867 25.3303 15.6667 24.7436 16.76C24.1703 17.8533 23.3569 18.7067 22.3036 19.32C21.2636 19.92 20.0436 20.22 18.6436 20.22ZM18.6436 17.58C19.8169 17.58 20.7303 17.1733 21.3836 16.36C22.0503 15.5333 22.3836 14.3933 22.3836 12.94C22.3836 11.4733 22.0569 10.34 21.4036 9.54C20.7503 8.72667 19.8303 8.32 18.6436 8.32C17.4836 8.32 16.5703 8.72667 15.9036 9.54C15.2503 10.34 14.9236 11.4733 14.9236 12.94C14.9236 14.3933 15.2503 15.5333 15.9036 16.36C16.5703 17.1733 17.4836 17.58 18.6436 17.58Z" fill="white"/>
<path d="M35.0016 20.22C33.4149 20.22 32.0682 19.92 30.9616 19.32C29.8682 18.72 29.0349 17.88 28.4616 16.8C27.8882 15.72 27.6016 14.4533 27.6016 13C27.6016 11.5067 27.8949 10.2133 28.4816 9.12C29.0816 8.02667 29.9416 7.18 31.0616 6.58C32.1816 5.98 33.5282 5.68 35.1016 5.68C36.0882 5.68 37.0216 5.82 37.9016 6.1C38.7949 6.38 39.5216 6.75333 40.0816 7.22L39.0816 9.64C38.4682 9.18667 37.8416 8.86667 37.2016 8.68C36.5616 8.48 35.8682 8.38 35.1216 8.38C33.6949 8.38 32.6216 8.78 31.9016 9.58C31.1949 10.3667 30.8416 11.5067 30.8416 13C30.8416 14.5067 31.2016 15.6467 31.9216 16.42C32.6549 17.1933 33.7349 17.58 35.1616 17.58C35.9216 17.58 36.7216 17.46 37.5616 17.22V14.46H34.5216V12.22H40.1216V19.14C39.4282 19.4867 38.6282 19.7533 37.7216 19.94C36.8149 20.1267 35.9082 20.22 35.0016 20.22ZM49.4053 20.22C48.0186 20.22 46.7986 19.92 45.7453 19.32C44.7053 18.7067 43.892 17.86 43.3053 16.78C42.732 15.6867 42.4453 14.4067 42.4453 12.94C42.4453 11.4733 42.732 10.2 43.3053 9.12C43.892 8.02667 44.7053 7.18 45.7453 6.58C46.7853 5.98 48.0053 5.68 49.4053 5.68C50.8053 5.68 52.0253 5.98 53.0653 6.58C54.1186 7.18 54.932 8.02667 55.5053 9.12C56.092 10.2 56.3853 11.4667 56.3853 12.92C56.3853 14.3867 56.092 15.6667 55.5053 16.76C54.932 17.8533 54.1186 18.7067 53.0653 19.32C52.0253 19.92 50.8053 20.22 49.4053 20.22ZM49.4053 17.58C50.5786 17.58 51.492 17.1733 52.1453 16.36C52.812 15.5333 53.1453 14.3933 53.1453 12.94C53.1453 11.4733 52.8186 10.34 52.1653 9.54C51.512 8.72667 50.592 8.32 49.4053 8.32C48.2453 8.32 47.332 8.72667 46.6653 9.54C46.012 10.34 45.6853 11.4733 45.6853 12.94C45.6853 14.3933 46.012 15.5333 46.6653 16.36C47.332 17.1733 48.2453 17.58 49.4053 17.58Z" fill="#4379EE"/>
</svg>
