<svg width="35" height="35" viewBox="0 0 35 35" fill="none" xmlns="http://www.w3.org/2000/svg">
<g clip-path="url(#clip0_2_814)">
<path d="M14.5834 8.75C14.5828 10.7918 15.1182 12.7979 16.1359 14.568C17.1535 16.338 18.6179 17.81 20.3827 18.8369C22.1475 19.8637 24.1508 20.4094 26.1926 20.4195C28.2343 20.4295 30.2429 19.9036 32.0177 18.8942C31.3163 26.2937 25.0834 32.0833 17.5 32.0833C9.44565 32.0833 2.91669 25.5544 2.91669 17.5C2.91669 9.91667 8.70627 3.68375 16.1059 2.98229C15.1048 4.73949 14.58 6.72766 14.5834 8.75ZM5.83335 17.5C5.83335 20.5942 7.06252 23.5617 9.25044 25.7496C11.4384 27.9375 14.4058 29.1667 17.5 29.1667C19.5613 29.1665 21.5859 28.6207 23.3679 27.5846C25.1499 26.5485 26.6258 25.0591 27.6456 23.2677C27.1848 23.3115 26.7181 23.3333 26.25 23.3333C18.1956 23.3333 11.6667 16.8044 11.6667 8.75C11.6667 8.28187 11.6886 7.81667 11.7323 7.35437C9.94096 8.37422 8.45154 9.85015 7.41544 11.6321C6.37933 13.4141 5.83348 15.4387 5.83335 17.5ZM26.4892 3.34104L27.7084 3.64583V5.10417L26.4892 5.40896C25.9764 5.53719 25.5082 5.80235 25.1344 6.17608C24.7607 6.54982 24.4955 7.01808 24.3673 7.53083L24.0625 8.75H22.6042L22.2994 7.53083C22.1712 7.01808 21.906 6.54982 21.5323 6.17608C21.1585 5.80235 20.6903 5.53719 20.1775 5.40896L18.9584 5.10417V3.64583L20.1775 3.34104C20.69 3.21257 21.158 2.94732 21.5314 2.5736C21.9049 2.19988 22.1698 1.73173 22.2979 1.21917L22.6042 0H24.0625L24.3673 1.21917C24.4955 1.73192 24.7607 2.20018 25.1344 2.57392C25.5082 2.94765 25.9764 3.21281 26.4892 3.34104ZM33.7809 10.6327L35 10.9375V12.3958L33.7809 12.7006C33.2681 12.8289 32.7998 13.094 32.4261 13.4677C32.0524 13.8415 31.7872 14.3097 31.659 14.8225L31.3542 16.0417H29.8959L29.5911 14.8225C29.4628 14.3097 29.1977 13.8415 28.8239 13.4677C28.4502 13.094 27.9819 12.8289 27.4692 12.7006L26.25 12.3958V10.9375L27.4692 10.6327C27.9819 10.5045 28.4502 10.2393 28.8239 9.86558C29.1977 9.49185 29.4628 9.02358 29.5911 8.51083L29.8959 7.29167H31.3542L31.659 8.51083C31.7872 9.02358 32.0524 9.49185 32.4261 9.86558C32.7998 10.2393 33.2681 10.5045 33.7809 10.6327Z" fill="black"/>
</g>
<defs>
<clipPath id="clip0_2_814">
<rect width="35" height="35" fill="white"/>
</clipPath>
</defs>
</svg>
