<svg width="35" height="35" viewBox="0 0 35 35" fill="none" xmlns="http://www.w3.org/2000/svg">
<g clip-path="url(#clip0_25_686)">
<path d="M17.4999 26.25C15.1793 26.25 12.9537 25.3282 11.3127 23.6872C9.67179 22.0463 8.74992 19.8207 8.74992 17.5C8.74992 15.1794 9.67179 12.9538 11.3127 11.3129C12.9537 9.67191 15.1793 8.75004 17.4999 8.75004C19.8206 8.75004 22.0462 9.67191 23.6871 11.3129C25.328 12.9538 26.2499 15.1794 26.2499 17.5C26.2499 19.8207 25.328 22.0463 23.6871 23.6872C22.0462 25.3282 19.8206 26.25 17.4999 26.25ZM17.4999 23.3334C19.047 23.3334 20.5307 22.7188 21.6247 21.6248C22.7187 20.5309 23.3333 19.0471 23.3333 17.5C23.3333 15.9529 22.7187 14.4692 21.6247 13.3752C20.5307 12.2813 19.047 11.6667 17.4999 11.6667C15.9528 11.6667 14.4691 12.2813 13.3751 13.3752C12.2812 14.4692 11.6666 15.9529 11.6666 17.5C11.6666 19.0471 12.2812 20.5309 13.3751 21.6248C14.4691 22.7188 15.9528 23.3334 17.4999 23.3334ZM16.0416 1.45837H18.9583V5.83337H16.0416V1.45837ZM16.0416 29.1667H18.9583V33.5417H16.0416V29.1667ZM5.12596 7.18817L7.18804 5.12608L10.2812 8.21921L8.21909 10.2813L5.12596 7.18817ZM24.7187 26.7809L26.7808 24.7188L29.8739 27.8119L27.8118 29.874L24.7187 26.7809ZM27.8118 5.12462L29.8739 7.18817L26.7808 10.2813L24.7187 8.21921L27.8118 5.12608V5.12462ZM8.21909 24.7188L10.2812 26.7809L7.18804 29.874L5.12596 27.8119L8.21909 24.7188ZM33.5416 16.0417V18.9584H29.1666V16.0417H33.5416ZM5.83325 16.0417V18.9584H1.45825V16.0417H5.83325Z" fill="white"/>
</g>
<defs>
<clipPath id="clip0_25_686">
<rect width="35" height="35" fill="white"/>
</clipPath>
</defs>
</svg>
